<svg width="102" height="92" viewBox="0 0 102 92" fill="none" xmlns="http://www.w3.org/2000/svg">
<rect x="13" y="92" width="92" height="27" rx="6" transform="rotate(-90 13 92)" fill="#FEB5CB"/>
<path d="M0 45H102L95.5 66.0342L0 69V45Z" fill="#FF6666"/>
<path d="M12.2393 32.7016C12.1882 32.186 11.9688 31.7854 11.581 31.4999C11.1932 31.2144 10.6669 31.0716 10.0021 31.0716C9.55043 31.0716 9.16903 31.1355 8.85795 31.2634C8.54688 31.387 8.30824 31.5595 8.14205 31.7811C7.98011 32.0027 7.89915 32.2542 7.89915 32.5354C7.89063 32.7698 7.93963 32.9743 8.04616 33.149C8.15696 33.3238 8.30824 33.475 8.5 33.6029C8.69176 33.7265 8.91335 33.8351 9.16477 33.9289C9.41619 34.0184 9.68466 34.0951 9.97017 34.159L11.1463 34.4402C11.7173 34.5681 12.2415 34.7385 12.7188 34.9516C13.196 35.1647 13.6094 35.4267 13.9588 35.7378C14.3082 36.0489 14.5788 36.4154 14.7706 36.8372C14.9666 37.2591 15.0668 37.7428 15.071 38.2882C15.0668 39.0894 14.8622 39.784 14.4574 40.372C14.0568 40.9559 13.4773 41.4097 12.7188 41.7336C11.9645 42.0532 11.0547 42.213 9.98935 42.213C8.93253 42.213 8.01207 42.051 7.22798 41.7272C6.44815 41.4033 5.83878 40.9239 5.39986 40.289C4.9652 39.6497 4.73722 38.8593 4.71591 37.9175H7.39418C7.42401 38.3564 7.54972 38.7229 7.77131 39.0169C7.99716 39.3067 8.29759 39.5262 8.67259 39.6753C9.05185 39.8202 9.48011 39.8926 9.95739 39.8926C10.4261 39.8926 10.8331 39.8245 11.1783 39.6881C11.5277 39.5517 11.7983 39.3621 11.9901 39.1192C12.1818 38.8763 12.2777 38.5972 12.2777 38.2818C12.2777 37.9878 12.1903 37.7407 12.0156 37.5404C11.8452 37.3401 11.5938 37.1696 11.2614 37.029C10.9332 36.8884 10.5305 36.7605 10.0533 36.6455L8.62784 36.2875C7.52415 36.0191 6.6527 35.5993 6.01349 35.0283C5.37429 34.4573 5.05682 33.6881 5.06108 32.7208C5.05682 31.9282 5.26776 31.2357 5.69389 30.6434C6.12429 30.051 6.71449 29.5887 7.46449 29.2563C8.21449 28.9239 9.06676 28.7577 10.0213 28.7577C10.9929 28.7577 11.8409 28.9239 12.5653 29.2563C13.294 29.5887 13.8608 30.051 14.2656 30.6434C14.6705 31.2357 14.8793 31.9218 14.892 32.7016H12.2393ZM21.356 42.2193C20.3461 42.2193 19.4767 42.0148 18.748 41.6057C18.0236 41.1924 17.4654 40.6086 17.0733 39.8543C16.6813 39.0958 16.4853 38.1988 16.4853 37.1632C16.4853 36.1533 16.6813 35.2669 17.0733 34.5042C17.4654 33.7414 18.0172 33.1469 18.7289 32.7208C19.4448 32.2946 20.2843 32.0816 21.2473 32.0816C21.8951 32.0816 22.498 32.186 23.0563 32.3948C23.6188 32.5993 24.1088 32.9083 24.5265 33.3216C24.9483 33.735 25.2765 34.2549 25.5108 34.8813C25.7452 35.5034 25.8624 36.2321 25.8624 37.0674V37.8152H17.5719V36.1277H23.2992C23.2992 35.7357 23.214 35.3884 23.0435 35.0858C22.873 34.7833 22.6365 34.5468 22.334 34.3763C22.0357 34.2016 21.6884 34.1142 21.2921 34.1142C20.8787 34.1142 20.5123 34.2101 20.1926 34.4019C19.8773 34.5894 19.6301 34.8429 19.4512 35.1625C19.2722 35.4779 19.1806 35.8294 19.1763 36.2172V37.8216C19.1763 38.3074 19.2658 38.7272 19.4448 39.0809C19.628 39.4345 19.8858 39.7073 20.2182 39.899C20.5506 40.0908 20.9448 40.1867 21.4007 40.1867C21.7033 40.1867 21.9803 40.1441 22.2317 40.0588C22.4831 39.9736 22.6983 39.8458 22.8773 39.6753C23.0563 39.5049 23.1926 39.2961 23.2864 39.0489L25.8049 39.2151C25.677 39.8202 25.415 40.3486 25.0186 40.8003C24.6266 41.2478 24.1195 41.5972 23.4973 41.8486C22.8794 42.0958 22.1657 42.2193 21.356 42.2193ZM27.6394 42.0276V32.2094H30.2793V33.9225H30.3816C30.5605 33.3131 30.861 32.8529 31.2828 32.5418C31.7047 32.2265 32.1905 32.0688 32.7402 32.0688C32.8766 32.0688 33.0236 32.0773 33.1813 32.0943C33.339 32.1114 33.4775 32.1348 33.5968 32.1647V34.5809C33.4689 34.5425 33.2921 34.5084 33.0662 34.4786C32.8404 34.4488 32.6337 34.4338 32.4462 34.4338C32.0456 34.4338 31.6877 34.5212 31.3723 34.6959C31.0613 34.8664 30.8141 35.105 30.6309 35.4118C30.4519 35.7186 30.3624 36.0723 30.3624 36.4729V42.0276H27.6394ZM44.4569 32.2094L41.0243 42.0276H37.9561L34.5236 32.2094H37.4L39.4391 39.2343H39.5414L41.574 32.2094H44.4569ZM45.8503 42.0276V32.2094H48.5733V42.0276H45.8503ZM47.2182 30.9438C46.8134 30.9438 46.4661 30.8095 46.1763 30.5411C45.8908 30.2684 45.748 29.9424 45.748 29.5631C45.748 29.1881 45.8908 28.8664 46.1763 28.5979C46.4661 28.3252 46.8134 28.1888 47.2182 28.1888C47.623 28.1888 47.9682 28.3252 48.2537 28.5979C48.5435 28.8664 48.6884 29.1881 48.6884 29.5631C48.6884 29.9424 48.5435 30.2684 48.2537 30.5411C47.9682 30.8095 47.623 30.9438 47.2182 30.9438ZM55.1907 42.2193C54.185 42.2193 53.32 42.0063 52.5955 41.5801C51.8754 41.1497 51.3214 40.5532 50.9336 39.7904C50.5501 39.0276 50.3583 38.1497 50.3583 37.1568C50.3583 36.1512 50.5522 35.2691 50.94 34.5105C51.332 33.7478 51.8881 33.1533 52.6083 32.7272C53.3285 32.2968 54.185 32.0816 55.1779 32.0816C56.0344 32.0816 56.7844 32.2371 57.4279 32.5482C58.0714 32.8593 58.5806 33.2961 58.9556 33.8586C59.3306 34.4211 59.5373 35.0816 59.5756 35.8401H57.006C56.9336 35.35 56.7418 34.9559 56.4308 34.6576C56.1239 34.355 55.7212 34.2037 55.2227 34.2037C54.8008 34.2037 54.4322 34.3188 54.1168 34.5489C53.8058 34.7747 53.5629 35.105 53.3881 35.5397C53.2134 35.9743 53.1261 36.5006 53.1261 37.1185C53.1261 37.7449 53.2113 38.2776 53.3817 38.7165C53.5565 39.1554 53.8015 39.4899 54.1168 39.7201C54.4322 39.9502 54.8008 40.0652 55.2227 40.0652C55.5337 40.0652 55.8129 40.0013 56.06 39.8735C56.3114 39.7456 56.5181 39.5603 56.68 39.3174C56.8462 39.0702 56.9549 38.774 57.006 38.4289H59.5756C59.533 39.1789 59.3285 39.8394 58.962 40.4104C58.5998 40.9772 58.0991 41.4203 57.4599 41.7399C56.8207 42.0595 56.0643 42.2193 55.1907 42.2193ZM61.3191 42.0276V32.2094H64.0421V42.0276H61.3191ZM62.687 30.9438C62.2821 30.9438 61.9348 30.8095 61.6451 30.5411C61.3596 30.2684 61.2168 29.9424 61.2168 29.5631C61.2168 29.1881 61.3596 28.8664 61.6451 28.5979C61.9348 28.3252 62.2821 28.1888 62.687 28.1888C63.0918 28.1888 63.437 28.3252 63.7225 28.5979C64.0123 28.8664 64.1571 29.1881 64.1571 29.5631C64.1571 29.9424 64.0123 30.2684 63.7225 30.5411C63.437 30.8095 63.0918 30.9438 62.687 30.9438ZM70.6594 42.2193C69.6665 42.2193 68.8079 42.0084 68.0835 41.5865C67.3633 41.1604 66.8072 40.5681 66.4151 39.8095C66.0231 39.0468 65.8271 38.1625 65.8271 37.1568C65.8271 36.1426 66.0231 35.2563 66.4151 34.4978C66.8072 33.735 67.3633 33.1426 68.0835 32.7208C68.8079 32.2946 69.6665 32.0816 70.6594 32.0816C71.6523 32.0816 72.5089 32.2946 73.229 32.7208C73.9535 33.1426 74.5117 33.735 74.9038 34.4978C75.2958 35.2563 75.4918 36.1426 75.4918 37.1568C75.4918 38.1625 75.2958 39.0468 74.9038 39.8095C74.5117 40.5681 73.9535 41.1604 73.229 41.5865C72.5089 42.0084 71.6523 42.2193 70.6594 42.2193ZM70.6722 40.11C71.1239 40.11 71.5011 39.9821 71.8036 39.7265C72.1062 39.4665 72.3342 39.1128 72.4876 38.6654C72.6452 38.2179 72.7241 37.7087 72.7241 37.1377C72.7241 36.5667 72.6452 36.0574 72.4876 35.61C72.3342 35.1625 72.1062 34.8088 71.8036 34.5489C71.5011 34.289 71.1239 34.159 70.6722 34.159C70.2163 34.159 69.8327 34.289 69.5217 34.5489C69.2148 34.8088 68.9826 35.1625 68.8249 35.61C68.6715 36.0574 68.5948 36.5667 68.5948 37.1377C68.5948 37.7087 68.6715 38.2179 68.8249 38.6654C68.9826 39.1128 69.2148 39.4665 69.5217 39.7265C69.8327 39.9821 70.2163 40.11 70.6722 40.11ZM85.4315 35.0091L82.9386 35.1625C82.896 34.9495 82.8043 34.7577 82.6637 34.5872C82.5231 34.4125 82.3377 34.274 82.1076 34.1718C81.8817 34.0652 81.6112 34.012 81.2958 34.012C80.8739 34.012 80.5181 34.1015 80.2283 34.2804C79.9386 34.4551 79.7937 34.6895 79.7937 34.9836C79.7937 35.2179 79.8874 35.4161 80.0749 35.578C80.2624 35.7399 80.5842 35.8699 81.0401 35.9679L82.8171 36.3259C83.7717 36.5219 84.4833 36.8372 84.9521 37.2719C85.4208 37.7066 85.6552 38.2776 85.6552 38.985C85.6552 39.6284 85.4656 40.1931 85.0863 40.6789C84.7113 41.1647 84.1957 41.5439 83.5394 41.8167C82.8874 42.0851 82.1353 42.2193 81.283 42.2193C79.9833 42.2193 78.9478 41.9488 78.1765 41.4076C77.4094 40.8621 76.9599 40.1206 76.8278 39.1831L79.506 39.0425C79.587 39.4388 79.783 39.7414 80.0941 39.9502C80.4052 40.1547 80.8036 40.257 81.2894 40.257C81.7667 40.257 82.1502 40.1654 82.44 39.9821C82.734 39.7946 82.8832 39.5539 82.8874 39.2598C82.8832 39.0127 82.7788 38.8103 82.5742 38.6526C82.3697 38.4907 82.0543 38.3671 81.6282 38.2818L79.9279 37.9431C78.9691 37.7513 78.2553 37.4189 77.7866 36.9459C77.3221 36.4729 77.0898 35.8699 77.0898 35.137C77.0898 34.5063 77.2603 33.963 77.6012 33.507C77.9464 33.051 78.43 32.6995 79.0522 32.4523C79.6786 32.2051 80.4116 32.0816 81.2511 32.0816C82.4911 32.0816 83.467 32.3436 84.1786 32.8678C84.8945 33.3919 85.3121 34.1057 85.4315 35.0091Z" fill="black"/>
<path d="M13.8686 54.0311H11.6911C11.6513 53.7494 11.5701 53.4992 11.4474 53.2804C11.3248 53.0584 11.1674 52.8694 10.9751 52.7137C10.7829 52.5579 10.5608 52.4386 10.3089 52.3557C10.0604 52.2728 9.79025 52.2314 9.49858 52.2314C8.97159 52.2314 8.51255 52.3623 8.12145 52.6242C7.73035 52.8827 7.42708 53.2605 7.21165 53.7577C6.99621 54.2515 6.88849 54.8514 6.88849 55.5574C6.88849 56.2833 6.99621 56.8931 7.21165 57.387C7.4304 57.8808 7.73532 58.2537 8.12642 58.5056C8.51752 58.7575 8.96993 58.8834 9.48366 58.8834C9.77202 58.8834 10.0388 58.8453 10.2841 58.7691C10.5327 58.6928 10.7531 58.5818 10.9453 58.436C11.1375 58.2868 11.2966 58.1062 11.4226 57.8941C11.5518 57.6819 11.6413 57.44 11.6911 57.1682L13.8686 57.1781C13.8123 57.6455 13.6714 58.0962 13.446 58.5304C13.224 58.9613 12.924 59.3474 12.5462 59.6888C12.1716 60.0269 11.7242 60.2953 11.2038 60.4942C10.6868 60.6897 10.1018 60.7875 9.44886 60.7875C8.54072 60.7875 7.72869 60.582 7.01278 60.171C6.30019 59.7601 5.73674 59.1651 5.32244 58.3862C4.91146 57.6074 4.70597 56.6644 4.70597 55.5574C4.70597 54.4471 4.91477 53.5025 5.33239 52.7236C5.75 51.9447 6.31676 51.3514 7.03267 50.9438C7.74858 50.5328 8.55398 50.3273 9.44886 50.3273C10.0388 50.3273 10.5857 50.4102 11.0895 50.5759C11.5966 50.7416 12.0457 50.9835 12.4368 51.3017C12.8279 51.6166 13.1461 52.0027 13.3913 52.4601C13.6399 52.9175 13.799 53.4412 13.8686 54.0311ZM18.8228 60.7975C18.0505 60.7975 17.3827 60.6334 16.8192 60.3053C16.2591 59.9738 15.8266 59.5131 15.5217 58.9232C15.2167 58.3299 15.0643 57.6422 15.0643 56.86C15.0643 56.0711 15.2167 55.3817 15.5217 54.7918C15.8266 54.1985 16.2591 53.7378 16.8192 53.4097C17.3827 53.0782 18.0505 52.9125 18.8228 52.9125C19.5951 52.9125 20.2612 53.0782 20.8214 53.4097C21.3848 53.7378 21.819 54.1985 22.1239 54.7918C22.4289 55.3817 22.5813 56.0711 22.5813 56.86C22.5813 57.6422 22.4289 58.3299 22.1239 58.9232C21.819 59.5131 21.3848 59.9738 20.8214 60.3053C20.2612 60.6334 19.5951 60.7975 18.8228 60.7975ZM18.8327 59.1568C19.1841 59.1568 19.4774 59.0574 19.7127 58.8585C19.948 58.6564 20.1254 58.3813 20.2447 58.0333C20.3673 57.6852 20.4286 57.2892 20.4286 56.845C20.4286 56.4009 20.3673 56.0048 20.2447 55.6568C20.1254 55.3088 19.948 55.0337 19.7127 54.8316C19.4774 54.6294 19.1841 54.5283 18.8327 54.5283C18.4781 54.5283 18.1798 54.6294 17.9379 54.8316C17.6992 55.0337 17.5186 55.3088 17.396 55.6568C17.2766 56.0048 17.217 56.4009 17.217 56.845C17.217 57.2892 17.2766 57.6852 17.396 58.0333C17.5186 58.3813 17.6992 58.6564 17.9379 58.8585C18.1798 59.0574 18.4781 59.1568 18.8327 59.1568ZM23.9585 60.6483V53.012H25.9769V54.3593H26.0664C26.2255 53.9118 26.4906 53.5588 26.8619 53.3003C27.2331 53.0418 27.6772 52.9125 28.1942 52.9125C28.7179 52.9125 29.1637 53.0434 29.5316 53.3053C29.8995 53.5638 30.1448 53.9151 30.2674 54.3593H30.3469C30.5027 53.9218 30.7844 53.5721 31.1921 53.3102C31.6031 53.0451 32.0887 52.9125 32.6488 52.9125C33.3614 52.9125 33.9397 53.1396 34.3839 53.5936C34.8313 54.0444 35.055 54.6841 35.055 55.5127V60.6483H32.9421V55.9303C32.9421 55.506 32.8294 55.1879 32.604 54.9757C32.3787 54.7636 32.0969 54.6575 31.7589 54.6575C31.3744 54.6575 31.0745 54.7802 30.859 55.0254C30.6436 55.2674 30.5359 55.5872 30.5359 55.985V60.6483H28.4826V55.8855C28.4826 55.511 28.3749 55.2127 28.1594 54.9906C27.9473 54.7686 27.6673 54.6575 27.3192 54.6575C27.0839 54.6575 26.8718 54.7172 26.6829 54.8365C26.4973 54.9525 26.3498 55.1166 26.2404 55.3287C26.131 55.5375 26.0763 55.7828 26.0763 56.0645V60.6483H23.9585ZM41.625 57.3969V53.012H43.7429V60.6483H41.7095V59.2612H41.63C41.4576 59.7087 41.1709 60.0683 40.7699 60.3401C40.3722 60.6119 39.8866 60.7477 39.3132 60.7477C38.8028 60.7477 38.3537 60.6317 37.9659 60.3997C37.5781 60.1677 37.2749 59.8379 37.0561 59.4104C36.8407 58.9828 36.7313 58.4708 36.728 57.8742V53.012H38.8459V57.4963C38.8492 57.9471 38.9702 58.3034 39.2088 58.5652C39.4474 58.8271 39.7673 58.958 40.1683 58.958C40.4235 58.958 40.6622 58.9 40.8842 58.784C41.1063 58.6647 41.2853 58.489 41.4212 58.257C41.5604 58.025 41.6283 57.7383 41.625 57.3969ZM47.5549 56.2335V60.6483H45.437V53.012H47.4554V54.3593H47.5449C47.714 53.9151 47.9973 53.5638 48.3951 53.3053C48.7928 53.0434 49.275 52.9125 49.8418 52.9125C50.3721 52.9125 50.8345 53.0285 51.2289 53.2605C51.6233 53.4925 51.9299 53.824 52.1486 54.2548C52.3674 54.6824 52.4767 55.1928 52.4767 55.7861V60.6483H50.3588V56.1639C50.3622 55.6966 50.2428 55.332 50.0009 55.0702C49.7589 54.805 49.4258 54.6725 49.0016 54.6725C48.7166 54.6725 48.4647 54.7338 48.2459 54.8564C48.0305 54.979 47.8614 55.158 47.7388 55.3933C47.6195 55.6254 47.5582 55.9054 47.5549 56.2335ZM54.146 60.6483V53.012H56.2638V60.6483H54.146ZM55.2099 52.0276C54.895 52.0276 54.6249 51.9232 54.3995 51.7144C54.1774 51.5022 54.0664 51.2487 54.0664 50.9537C54.0664 50.662 54.1774 50.4118 54.3995 50.203C54.6249 49.9909 54.895 49.8848 55.2099 49.8848C55.5247 49.8848 55.7932 49.9909 56.0153 50.203C56.2406 50.4118 56.3533 50.662 56.3533 50.9537C56.3533 51.2487 56.2406 51.5022 56.0153 51.7144C55.7932 51.9232 55.5247 52.0276 55.2099 52.0276ZM62.0222 53.012V54.6029H57.4235V53.012H62.0222ZM58.4675 51.1824H60.5854V58.3017C60.5854 58.4973 60.6152 58.6497 60.6749 58.7591C60.7346 58.8652 60.8174 58.9397 60.9235 58.9828C61.0328 59.0259 61.1588 59.0475 61.3013 59.0475C61.4007 59.0475 61.5002 59.0392 61.5996 59.0226C61.699 59.0027 61.7753 58.9878 61.8283 58.9779L62.1614 60.5539C62.0553 60.587 61.9062 60.6251 61.714 60.6682C61.5217 60.7146 61.2881 60.7428 61.013 60.7527C60.5025 60.7726 60.0551 60.7047 59.6706 60.5489C59.2895 60.3931 58.9928 60.1512 58.7807 59.823C58.5686 59.4949 58.4642 59.0806 58.4675 58.5801V51.1824ZM65.5794 60.7925C65.0922 60.7925 64.658 60.708 64.2768 60.5389C63.8957 60.3666 63.594 60.113 63.372 59.7783C63.1532 59.4402 63.0439 59.0193 63.0439 58.5155C63.0439 58.0913 63.1217 57.735 63.2775 57.4466C63.4333 57.1583 63.6454 56.9263 63.9139 56.7506C64.1824 56.5749 64.4873 56.4423 64.8287 56.3529C65.1734 56.2634 65.5346 56.2004 65.9125 56.1639C66.3566 56.1175 66.7145 56.0745 66.9863 56.0347C67.2581 55.9916 67.4553 55.9286 67.5779 55.8458C67.7006 55.7629 67.7619 55.6403 67.7619 55.4779V55.448C67.7619 55.1332 67.6625 54.8896 67.4636 54.7172C67.2681 54.5449 66.9896 54.4587 66.6284 54.4587C66.2472 54.4587 65.944 54.5432 65.7186 54.7122C65.4932 54.878 65.344 55.0868 65.2711 55.3387L63.3123 55.1796C63.4118 54.7156 63.6073 54.3145 63.899 53.9764C64.1906 53.6351 64.5668 53.3732 65.0275 53.1909C65.4915 53.0053 66.0285 52.9125 66.6383 52.9125C67.0626 52.9125 67.4686 52.9622 67.8564 53.0617C68.2475 53.1611 68.5938 53.3152 68.8954 53.524C69.2003 53.7328 69.4406 54.0013 69.6163 54.3294C69.792 54.6542 69.8798 55.0437 69.8798 55.4977V60.6483H67.8713V59.5894H67.8116C67.689 59.828 67.5249 60.0385 67.3194 60.2208C67.1139 60.3997 66.867 60.5406 66.5787 60.6433C66.2903 60.7428 65.9572 60.7925 65.5794 60.7925ZM66.1859 59.3308C66.4975 59.3308 66.7725 59.2695 67.0112 59.1469C67.2498 59.0209 67.4371 58.8519 67.573 58.6398C67.7089 58.4277 67.7768 58.1874 67.7768 57.9189V57.1085C67.7105 57.1516 67.6194 57.1914 67.5034 57.2279C67.3907 57.261 67.2631 57.2925 67.1206 57.3223C66.978 57.3488 66.8355 57.3737 66.693 57.3969C66.5505 57.4168 66.4212 57.435 66.3052 57.4516C66.0566 57.488 65.8395 57.546 65.6539 57.6256C65.4683 57.7051 65.3242 57.8129 65.2214 57.9487C65.1187 58.0813 65.0673 58.247 65.0673 58.4459C65.0673 58.7343 65.1717 58.9547 65.3805 59.1071C65.5926 59.2563 65.8611 59.3308 66.1859 59.3308ZM71.5229 60.6483V53.012H73.5762V54.3443H73.6557C73.7949 53.8704 74.0286 53.5124 74.3567 53.2705C74.6848 53.0252 75.0627 52.9026 75.4902 52.9026C75.5963 52.9026 75.7106 52.9092 75.8333 52.9225C75.9559 52.9357 76.0636 52.9539 76.1564 52.9772V54.8564C76.057 54.8266 75.9194 54.8001 75.7438 54.7769C75.5681 54.7537 75.4074 54.7421 75.2615 54.7421C74.95 54.7421 74.6716 54.81 74.4263 54.9459C74.1844 55.0785 73.9921 55.2641 73.8496 55.5027C73.7104 55.7414 73.6408 56.0164 73.6408 56.328V60.6483H71.5229ZM77.2514 60.6483V53.012H79.3693V60.6483H77.2514ZM78.3153 52.0276C78.0005 52.0276 77.7304 51.9232 77.505 51.7144C77.2829 51.5022 77.1719 51.2487 77.1719 50.9537C77.1719 50.662 77.2829 50.4118 77.505 50.203C77.7304 49.9909 78.0005 49.8848 78.3153 49.8848C78.6302 49.8848 78.8987 49.9909 79.1207 50.203C79.3461 50.4118 79.4588 50.662 79.4588 50.9537C79.4588 51.2487 79.3461 51.5022 79.1207 51.7144C78.8987 51.9232 78.6302 52.0276 78.3153 52.0276ZM84.5162 60.7975C83.7439 60.7975 83.0761 60.6334 82.5126 60.3053C81.9525 59.9738 81.5199 59.5131 81.215 58.9232C80.9101 58.3299 80.7576 57.6422 80.7576 56.86C80.7576 56.0711 80.9101 55.3817 81.215 54.7918C81.5199 54.1985 81.9525 53.7378 82.5126 53.4097C83.0761 53.0782 83.7439 52.9125 84.5162 52.9125C85.2884 52.9125 85.9546 53.0782 86.5147 53.4097C87.0782 53.7378 87.5124 54.1985 87.8173 54.7918C88.1222 55.3817 88.2747 56.0711 88.2747 56.86C88.2747 57.6422 88.1222 58.3299 87.8173 58.9232C87.5124 59.5131 87.0782 59.9738 86.5147 60.3053C85.9546 60.6334 85.2884 60.7975 84.5162 60.7975ZM84.5261 59.1568C84.8774 59.1568 85.1708 59.0574 85.4061 58.8585C85.6414 58.6564 85.8187 58.3813 85.938 58.0333C86.0607 57.6852 86.122 57.2892 86.122 56.845C86.122 56.4009 86.0607 56.0048 85.938 55.6568C85.8187 55.3088 85.6414 55.0337 85.4061 54.8316C85.1708 54.6294 84.8774 54.5283 84.5261 54.5283C84.1715 54.5283 83.8732 54.6294 83.6312 54.8316C83.3926 55.0337 83.2119 55.3088 83.0893 55.6568C82.97 56.0048 82.9103 56.4009 82.9103 56.845C82.9103 57.2892 82.97 57.6852 83.0893 58.0333C83.2119 58.3813 83.3926 58.6564 83.6312 58.8585C83.8732 59.0574 84.1715 59.1568 84.5261 59.1568ZM96.0055 55.1895L94.0666 55.3088C94.0334 55.1431 93.9622 54.994 93.8528 54.8614C93.7434 54.7255 93.5993 54.6178 93.4203 54.5382C93.2446 54.4554 93.0342 54.4139 92.7889 54.4139C92.4608 54.4139 92.184 54.4835 91.9586 54.6227C91.7333 54.7586 91.6206 54.9409 91.6206 55.1696C91.6206 55.3519 91.6935 55.506 91.8393 55.632C91.9851 55.7579 92.2354 55.859 92.59 55.9352L93.9721 56.2137C94.7145 56.3661 95.2681 56.6114 95.6326 56.9495C95.9972 57.2875 96.1795 57.7316 96.1795 58.2818C96.1795 58.7823 96.032 59.2215 95.737 59.5993C95.4454 59.9772 95.0443 60.2721 94.5339 60.4843C94.0268 60.6931 93.4418 60.7975 92.7789 60.7975C91.7681 60.7975 90.9627 60.587 90.3627 60.1661C89.7662 59.7418 89.4165 59.1651 89.3137 58.436L91.3968 58.3266C91.4598 58.6348 91.6123 58.8701 91.8542 59.0325C92.0962 59.1916 92.4061 59.2712 92.7839 59.2712C93.1551 59.2712 93.4534 59.1999 93.6788 59.0574C93.9075 58.9116 94.0235 58.7243 94.0268 58.4956C94.0235 58.3034 93.9423 58.1459 93.7832 58.0233C93.6241 57.8974 93.3788 57.8013 93.0474 57.735L91.725 57.4715C90.9792 57.3223 90.4241 57.0638 90.0595 56.6959C89.6982 56.328 89.5176 55.859 89.5176 55.2889C89.5176 54.7984 89.6502 54.3758 89.9153 54.0212C90.1838 53.6665 90.56 53.3931 91.0439 53.2009C91.5311 53.0086 92.1011 52.9125 92.7541 52.9125C93.7186 52.9125 94.4776 53.1164 95.0311 53.524C95.5879 53.9317 95.9127 54.4869 96.0055 55.1895Z" fill="white"/>
</svg>
